<?xml version="1.0" encoding="UTF-8"?>
<!DOCTYPE svg PUBLIC "-//W3C//DTD SVG 1.1//EN" "http://www.w3.org/Graphics/SVG/1.1/DTD/svg11.dtd">
<svg xmlns="http://www.w3.org/2000/svg" version="1.1" width="350px" height="400px" style="shape-rendering:geometricPrecision; text-rendering:geometricPrecision; image-rendering:optimizeQuality; fill-rule:evenodd; clip-rule:evenodd" xmlns:xlink="http://www.w3.org/1999/xlink">
<g><path style="opacity:0.935" fill="#161818" d="M -0.5,-0.5 C 30.8333,-0.5 62.1667,-0.5 93.5,-0.5C 93.3333,59.5009 93.5,119.501 94,179.5C 97.4499,188.369 102.283,196.369 108.5,203.5C 121.798,211.325 135.465,218.492 149.5,225C 153.095,228.05 156.595,231.216 160,234.5C 163.188,240.959 166.521,247.292 170,253.5C 170.5,302.166 170.667,350.832 170.5,399.5C 138.833,399.5 107.167,399.5 75.5,399.5C 75.6667,341.499 75.5,283.499 75,225.5C 73.7492,221.918 72.7492,218.251 72,214.5C 68.1876,208.36 64.0209,202.527 59.5,197C 45.9964,189.75 32.6631,182.25 19.5,174.5C 16.2407,171.952 13.074,169.286 10,166.5C 6.98272,160.48 3.98272,154.48 1,148.5C 0.832206,122.33 0.332206,96.3301 -0.5,70.5C -0.5,46.8333 -0.5,23.1667 -0.5,-0.5 Z"/></g>
<g><path style="opacity:0.945" fill="#161818" d="M 180.5,-0.5 C 211.5,-0.5 242.5,-0.5 273.5,-0.5C 273.333,87.834 273.5,176.167 274,264.5C 275.94,270.499 279.107,275.832 283.5,280.5C 287.548,284.216 291.882,287.55 296.5,290.5C 312.869,299.03 328.036,309.364 342,321.5C 345.562,325.761 348.062,330.428 349.5,335.5C 349.5,356.833 349.5,378.167 349.5,399.5C 317.5,399.5 285.5,399.5 253.5,399.5C 252.466,368.323 252.466,337.49 253.5,307C 253.124,296.75 249.124,288.25 241.5,281.5C 230.44,276.155 219.44,270.821 208.5,265.5C 197.037,257.54 187.87,247.54 181,235.5C 180.5,156.834 180.333,78.1674 180.5,-0.5 Z"/></g>
</svg>
